<svg width="1400" height="80" viewBox="0 0 1400 80" fill="none" xmlns="http://www.w3.org/2000/svg">
<rect width="1400" height="80" transform="matrix(1 0 0 -1 0 80)" fill="white"/>
<rect x="964.5" y="19.5" width="101" height="42" rx="3.5" stroke="#BCD0E5"/>
<path d="M998.16 43.768C998.16 39.832 992.432 41.08 992.432 38.84C992.432 37.928 993.088 37.496 993.968 37.528C994.928 37.544 995.52 38.12 995.568 38.856H998.032C997.888 36.84 996.32 35.672 994.032 35.672C991.728 35.672 990.096 36.888 990.096 38.904C990.08 42.952 995.84 41.496 995.84 43.912C995.84 44.712 995.216 45.272 994.16 45.272C993.12 45.272 992.528 44.68 992.464 43.784H990.064C990.096 45.896 991.888 47.112 994.208 47.112C996.752 47.112 998.16 45.528 998.16 43.768ZM1000.1 47H1002.34V38.136H1000.1V47ZM1001.24 37.08C1002.02 37.08 1002.61 36.504 1002.61 35.768C1002.61 35.032 1002.02 34.456 1001.24 34.456C1000.44 34.456 999.862 35.032 999.862 35.768C999.862 36.504 1000.44 37.08 1001.24 37.08ZM1003.98 42.536C1003.98 45.304 1005.77 47.144 1008.03 47.144C1009.42 47.144 1010.43 46.456 1010.95 45.688V47.064C1010.95 48.712 1009.99 49.416 1008.76 49.416C1007.64 49.416 1006.81 48.888 1006.59 48.088H1004.36C1004.59 50.12 1006.33 51.368 1008.83 51.368C1011.74 51.368 1013.21 49.464 1013.21 47.064V38.136H1010.95V39.4C1010.43 38.632 1009.42 37.992 1008.03 37.992C1005.77 37.992 1003.98 39.768 1003.98 42.536ZM1010.95 42.568C1010.95 44.248 1009.83 45.176 1008.6 45.176C1007.4 45.176 1006.27 44.216 1006.27 42.536C1006.27 40.856 1007.4 39.96 1008.6 39.96C1009.83 39.96 1010.95 40.888 1010.95 42.568ZM1021.61 47H1023.85V41.8C1023.85 39.352 1022.37 38.008 1020.31 38.008C1019.17 38.008 1018.21 38.488 1017.64 39.24V38.136H1015.4V47H1017.64V42.104C1017.64 40.68 1018.42 39.912 1019.64 39.912C1020.82 39.912 1021.61 40.68 1021.61 42.104V47ZM1029.79 47H1032.03V35.832H1029.79V47ZM1040.45 47H1042.69V41.8C1042.69 39.352 1041.22 38.008 1039.15 38.008C1038.02 38.008 1037.06 38.488 1036.48 39.24V38.136H1034.24V47H1036.48V42.104C1036.48 40.68 1037.27 39.912 1038.48 39.912C1039.67 39.912 1040.45 40.68 1040.45 42.104V47Z" fill="#173A56"/>
<rect x="1090" y="19" width="110" height="43" rx="4" fill="#02897A"/>
<path d="M1123.91 43.768C1123.91 39.832 1118.18 41.08 1118.18 38.84C1118.18 37.928 1118.84 37.496 1119.72 37.528C1120.68 37.544 1121.27 38.12 1121.32 38.856H1123.78C1123.64 36.84 1122.07 35.672 1119.78 35.672C1117.48 35.672 1115.85 36.888 1115.85 38.904C1115.83 42.952 1121.59 41.496 1121.59 43.912C1121.59 44.712 1120.97 45.272 1119.91 45.272C1118.87 45.272 1118.28 44.68 1118.22 43.784H1115.82C1115.85 45.896 1117.64 47.112 1119.96 47.112C1122.5 47.112 1123.91 45.528 1123.91 43.768ZM1125.85 47H1128.09V38.136H1125.85V47ZM1126.99 37.08C1127.77 37.08 1128.37 36.504 1128.37 35.768C1128.37 35.032 1127.77 34.456 1126.99 34.456C1126.19 34.456 1125.61 35.032 1125.61 35.768C1125.61 36.504 1126.19 37.08 1126.99 37.08ZM1129.73 42.536C1129.73 45.304 1131.52 47.144 1133.78 47.144C1135.17 47.144 1136.18 46.456 1136.71 45.688V47.064C1136.71 48.712 1135.75 49.416 1134.52 49.416C1133.4 49.416 1132.56 48.888 1132.34 48.088H1130.12C1130.34 50.12 1132.08 51.368 1134.58 51.368C1137.49 51.368 1138.96 49.464 1138.96 47.064V38.136H1136.71V39.4C1136.18 38.632 1135.17 37.992 1133.78 37.992C1131.52 37.992 1129.73 39.768 1129.73 42.536ZM1136.71 42.568C1136.71 44.248 1135.59 45.176 1134.36 45.176C1133.16 45.176 1132.02 44.216 1132.02 42.536C1132.02 40.856 1133.16 39.96 1134.36 39.96C1135.59 39.96 1136.71 40.888 1136.71 42.568ZM1147.36 47H1149.6V41.8C1149.6 39.352 1148.13 38.008 1146.06 38.008C1144.93 38.008 1143.97 38.488 1143.39 39.24V38.136H1141.15V47H1143.39V42.104C1143.39 40.68 1144.17 39.912 1145.39 39.912C1146.57 39.912 1147.36 40.68 1147.36 42.104V47ZM1155.51 42.728C1155.51 45.672 1157.53 47.112 1159.97 47.112C1162.42 47.112 1164.53 45.672 1164.53 42.728V35.832H1162.28V42.744C1162.28 44.28 1161.45 45.08 1160.01 45.08C1158.58 45.08 1157.75 44.28 1157.75 42.744V35.832H1155.51V42.728ZM1168.94 39.416V38.136H1166.7V51.224H1168.94V45.736C1169.48 46.456 1170.47 47.144 1171.87 47.144C1174.14 47.144 1175.91 45.304 1175.91 42.536C1175.91 39.768 1174.14 37.992 1171.87 37.992C1170.49 37.992 1169.47 38.664 1168.94 39.416ZM1173.63 42.536C1173.63 44.216 1172.49 45.176 1171.27 45.176C1170.07 45.176 1168.94 44.248 1168.94 42.568C1168.94 40.888 1170.07 39.96 1171.27 39.96C1172.49 39.96 1173.63 40.856 1173.63 42.536Z" fill="white"/>
<path d="M570.248 38.288C570.248 38.8853 570.104 39.4453 569.816 39.968C569.539 40.4907 569.096 40.912 568.488 41.232C567.891 41.552 567.133 41.712 566.216 41.712H564.344V46H562.104V34.832H566.216C567.08 34.832 567.816 34.9813 568.424 35.28C569.032 35.5787 569.485 35.9893 569.784 36.512C570.093 37.0347 570.248 37.6267 570.248 38.288ZM566.12 39.904C566.739 39.904 567.197 39.7653 567.496 39.488C567.795 39.2 567.944 38.8 567.944 38.288C567.944 37.2 567.336 36.656 566.12 36.656H564.344V39.904H566.12ZM574.078 38.512C574.366 38.0427 574.74 37.6747 575.198 37.408C575.668 37.1413 576.201 37.008 576.798 37.008V39.36H576.206C575.502 39.36 574.969 39.5253 574.606 39.856C574.254 40.1867 574.078 40.7627 574.078 41.584V46H571.838V37.136H574.078V38.512ZM582.243 46.144C581.39 46.144 580.622 45.9573 579.939 45.584C579.256 45.2 578.718 44.6613 578.323 43.968C577.939 43.2747 577.747 42.4747 577.747 41.568C577.747 40.6613 577.944 39.8613 578.339 39.168C578.744 38.4747 579.294 37.9413 579.987 37.568C580.68 37.184 581.454 36.992 582.307 36.992C583.16 36.992 583.934 37.184 584.627 37.568C585.32 37.9413 585.864 38.4747 586.259 39.168C586.664 39.8613 586.867 40.6613 586.867 41.568C586.867 42.4747 586.659 43.2747 586.243 43.968C585.838 44.6613 585.283 45.2 584.579 45.584C583.886 45.9573 583.107 46.144 582.243 46.144ZM582.243 44.192C582.648 44.192 583.027 44.096 583.379 43.904C583.742 43.7013 584.03 43.4027 584.243 43.008C584.456 42.6133 584.563 42.1333 584.563 41.568C584.563 40.7253 584.339 40.08 583.891 39.632C583.454 39.1733 582.915 38.944 582.275 38.944C581.635 38.944 581.096 39.1733 580.659 39.632C580.232 40.08 580.019 40.7253 580.019 41.568C580.019 42.4107 580.227 43.0613 580.643 43.52C581.07 43.968 581.603 44.192 582.243 44.192ZM587.934 41.536C587.934 40.64 588.11 39.8453 588.462 39.152C588.825 38.4587 589.316 37.9253 589.934 37.552C590.553 37.1787 591.241 36.992 591.998 36.992C592.574 36.992 593.124 37.12 593.646 37.376C594.169 37.6213 594.585 37.952 594.894 38.368V34.16H597.166V46H594.894V44.688C594.617 45.1253 594.228 45.4773 593.726 45.744C593.225 46.0107 592.644 46.144 591.982 46.144C591.236 46.144 590.553 45.952 589.934 45.568C589.316 45.184 588.825 44.6453 588.462 43.952C588.11 43.248 587.934 42.4427 587.934 41.536ZM594.91 41.568C594.91 41.024 594.804 40.56 594.59 40.176C594.377 39.7813 594.089 39.4827 593.726 39.28C593.364 39.0667 592.974 38.96 592.558 38.96C592.142 38.96 591.758 39.0613 591.406 39.264C591.054 39.4667 590.766 39.7653 590.542 40.16C590.329 40.544 590.222 41.0027 590.222 41.536C590.222 42.0693 590.329 42.5387 590.542 42.944C590.766 43.3387 591.054 43.6427 591.406 43.856C591.769 44.0693 592.153 44.176 592.558 44.176C592.974 44.176 593.364 44.0747 593.726 43.872C594.089 43.6587 594.377 43.36 594.59 42.976C594.804 42.5813 594.91 42.112 594.91 41.568ZM607.722 37.136V46H605.466V44.88C605.178 45.264 604.799 45.568 604.33 45.792C603.871 46.0053 603.37 46.112 602.826 46.112C602.133 46.112 601.519 45.968 600.986 45.68C600.453 45.3813 600.031 44.9493 599.722 44.384C599.423 43.808 599.274 43.1253 599.274 42.336V37.136H601.514V42.016C601.514 42.72 601.69 43.264 602.042 43.648C602.394 44.0213 602.874 44.208 603.482 44.208C604.101 44.208 604.586 44.0213 604.938 43.648C605.29 43.264 605.466 42.72 605.466 42.016V37.136H607.722ZM609.356 41.568C609.356 40.6507 609.543 39.8507 609.916 39.168C610.289 38.4747 610.807 37.9413 611.468 37.568C612.129 37.184 612.887 36.992 613.74 36.992C614.839 36.992 615.745 37.2693 616.46 37.824C617.185 38.368 617.671 39.136 617.916 40.128H615.5C615.372 39.744 615.153 39.4453 614.844 39.232C614.545 39.008 614.172 38.896 613.724 38.896C613.084 38.896 612.577 39.1307 612.204 39.6C611.831 40.0587 611.644 40.7147 611.644 41.568C611.644 42.4107 611.831 43.0667 612.204 43.536C612.577 43.9947 613.084 44.224 613.724 44.224C614.631 44.224 615.223 43.8187 615.5 43.008H617.916C617.671 43.968 617.185 44.7307 616.46 45.296C615.735 45.8613 614.828 46.144 613.74 46.144C612.887 46.144 612.129 45.9573 611.468 45.584C610.807 45.2 610.289 44.6667 609.916 43.984C609.543 43.2907 609.356 42.4853 609.356 41.568ZM622.165 38.976V43.264C622.165 43.5627 622.234 43.7813 622.373 43.92C622.522 44.048 622.768 44.112 623.109 44.112H624.149V46H622.741C620.853 46 619.909 45.0827 619.909 43.248V38.976H618.853V37.136H619.909V34.944H622.165V37.136H624.149V38.976H622.165ZM655.094 40.416C655.094 39.328 655.34 38.352 655.83 37.488C656.321 36.6133 656.988 35.9307 657.83 35.44C658.684 34.9493 659.628 34.704 660.662 34.704C661.878 34.704 662.94 34.9973 663.846 35.584C664.753 36.1707 665.414 37.0027 665.83 38.08H664.086C663.777 37.408 663.329 36.8907 662.742 36.528C662.166 36.1653 661.473 35.984 660.662 35.984C659.884 35.984 659.185 36.1653 658.566 36.528C657.948 36.8907 657.462 37.408 657.11 38.08C656.758 38.7413 656.582 39.52 656.582 40.416C656.582 41.3013 656.758 42.08 657.11 42.752C657.462 43.4133 657.948 43.9253 658.566 44.288C659.185 44.6507 659.884 44.832 660.662 44.832C661.473 44.832 662.166 44.656 662.742 44.304C663.329 43.9413 663.777 43.424 664.086 42.752H665.83C665.414 43.8187 664.753 44.6453 663.846 45.232C662.94 45.808 661.878 46.096 660.662 46.096C659.628 46.096 658.684 45.856 657.83 45.376C656.988 44.8853 656.321 44.208 655.83 43.344C655.34 42.48 655.094 41.504 655.094 40.416ZM675.774 37.232V46H674.318V44.704C674.04 45.152 673.651 45.504 673.15 45.76C672.659 46.0053 672.115 46.128 671.518 46.128C670.835 46.128 670.222 45.9893 669.678 45.712C669.134 45.424 668.702 44.9973 668.382 44.432C668.072 43.8667 667.918 43.1787 667.918 42.368V37.232H669.358V42.176C669.358 43.04 669.576 43.7067 670.014 44.176C670.451 44.6347 671.048 44.864 671.806 44.864C672.584 44.864 673.198 44.624 673.646 44.144C674.094 43.664 674.318 42.9653 674.318 42.048V37.232H675.774ZM681.336 46.144C680.664 46.144 680.061 46.032 679.528 45.808C678.995 45.5733 678.573 45.2533 678.264 44.848C677.955 44.432 677.784 43.9573 677.752 43.424H679.256C679.299 43.8613 679.501 44.2187 679.864 44.496C680.237 44.7733 680.723 44.912 681.32 44.912C681.875 44.912 682.312 44.7893 682.632 44.544C682.952 44.2987 683.112 43.9893 683.112 43.616C683.112 43.232 682.941 42.9493 682.6 42.768C682.259 42.576 681.731 42.3893 681.016 42.208C680.365 42.0373 679.832 41.8667 679.416 41.696C679.011 41.5147 678.659 41.2533 678.36 40.912C678.072 40.56 677.928 40.1013 677.928 39.536C677.928 39.088 678.061 38.6773 678.328 38.304C678.595 37.9307 678.973 37.6373 679.464 37.424C679.955 37.2 680.515 37.088 681.144 37.088C682.115 37.088 682.899 37.3333 683.496 37.824C684.093 38.3147 684.413 38.9867 684.456 39.84H683C682.968 39.3813 682.781 39.0133 682.44 38.736C682.109 38.4587 681.661 38.32 681.096 38.32C680.573 38.32 680.157 38.432 679.848 38.656C679.539 38.88 679.384 39.1733 679.384 39.536C679.384 39.824 679.475 40.064 679.656 40.256C679.848 40.4373 680.083 40.5867 680.36 40.704C680.648 40.8107 681.043 40.9333 681.544 41.072C682.173 41.2427 682.685 41.4133 683.08 41.584C683.475 41.744 683.811 41.9893 684.088 42.32C684.376 42.6507 684.525 43.0827 684.536 43.616C684.536 44.096 684.403 44.528 684.136 44.912C683.869 45.296 683.491 45.6 683 45.824C682.52 46.0373 681.965 46.144 681.336 46.144ZM688.367 38.432V43.6C688.367 44.0267 688.458 44.3307 688.639 44.512C688.821 44.6827 689.135 44.768 689.583 44.768H690.655V46H689.343C688.533 46 687.925 45.8133 687.519 45.44C687.114 45.0667 686.911 44.4533 686.911 43.6V38.432H685.775V37.232H686.911V35.024H688.367V37.232H690.655V38.432H688.367ZM696.244 46.144C695.422 46.144 694.676 45.9573 694.004 45.584C693.342 45.2107 692.82 44.6827 692.436 44C692.062 43.3067 691.876 42.5067 691.876 41.6C691.876 40.704 692.068 39.9147 692.452 39.232C692.846 38.5387 693.38 38.0107 694.052 37.648C694.724 37.2747 695.476 37.088 696.308 37.088C697.14 37.088 697.892 37.2747 698.564 37.648C699.236 38.0107 699.764 38.5333 700.148 39.216C700.542 39.8987 700.74 40.6933 700.74 41.6C700.74 42.5067 700.537 43.3067 700.132 44C699.737 44.6827 699.198 45.2107 698.516 45.584C697.833 45.9573 697.076 46.144 696.244 46.144ZM696.244 44.864C696.766 44.864 697.257 44.7413 697.716 44.496C698.174 44.2507 698.542 43.8827 698.82 43.392C699.108 42.9013 699.252 42.304 699.252 41.6C699.252 40.896 699.113 40.2987 698.836 39.808C698.558 39.3173 698.196 38.9547 697.748 38.72C697.3 38.4747 696.814 38.352 696.292 38.352C695.758 38.352 695.268 38.4747 694.82 38.72C694.382 38.9547 694.03 39.3173 693.764 39.808C693.497 40.2987 693.364 40.896 693.364 41.6C693.364 42.3147 693.492 42.9173 693.748 43.408C694.014 43.8987 694.366 44.2667 694.804 44.512C695.241 44.7467 695.721 44.864 696.244 44.864ZM713.198 37.072C713.881 37.072 714.489 37.216 715.022 37.504C715.555 37.7813 715.977 38.2027 716.286 38.768C716.595 39.3333 716.75 40.0213 716.75 40.832V46H715.31V41.04C715.31 40.1653 715.091 39.4987 714.654 39.04C714.227 38.5707 713.646 38.336 712.91 38.336C712.153 38.336 711.55 38.5813 711.102 39.072C710.654 39.552 710.43 40.2507 710.43 41.168V46H708.99V41.04C708.99 40.1653 708.771 39.4987 708.334 39.04C707.907 38.5707 707.326 38.336 706.59 38.336C705.833 38.336 705.23 38.5813 704.782 39.072C704.334 39.552 704.11 40.2507 704.11 41.168V46H702.654V37.232H704.11V38.496C704.398 38.0373 704.782 37.6853 705.262 37.44C705.753 37.1947 706.291 37.072 706.878 37.072C707.614 37.072 708.265 37.2373 708.83 37.568C709.395 37.8987 709.817 38.384 710.094 39.024C710.339 38.4053 710.745 37.9253 711.31 37.584C711.875 37.2427 712.505 37.072 713.198 37.072ZM727.138 41.28C727.138 41.5573 727.122 41.8507 727.09 42.16H720.082C720.136 43.024 720.429 43.7013 720.962 44.192C721.506 44.672 722.162 44.912 722.93 44.912C723.56 44.912 724.082 44.768 724.498 44.48C724.925 44.1813 725.224 43.7867 725.394 43.296H726.962C726.728 44.1387 726.258 44.8267 725.554 45.36C724.85 45.8827 723.976 46.144 722.93 46.144C722.098 46.144 721.352 45.9573 720.69 45.584C720.04 45.2107 719.528 44.6827 719.154 44C718.781 43.3067 718.594 42.5067 718.594 41.6C718.594 40.6933 718.776 39.8987 719.138 39.216C719.501 38.5333 720.008 38.0107 720.658 37.648C721.32 37.2747 722.077 37.088 722.93 37.088C723.762 37.088 724.498 37.2693 725.138 37.632C725.778 37.9947 726.269 38.496 726.61 39.136C726.962 39.7653 727.138 40.48 727.138 41.28ZM725.634 40.976C725.634 40.4213 725.512 39.9467 725.266 39.552C725.021 39.1467 724.685 38.8427 724.258 38.64C723.842 38.4267 723.378 38.32 722.866 38.32C722.13 38.32 721.501 38.5547 720.978 39.024C720.466 39.4933 720.173 40.144 720.098 40.976H725.634ZM730.516 38.656C730.772 38.1547 731.135 37.7653 731.604 37.488C732.084 37.2107 732.665 37.072 733.348 37.072V38.576H732.964C731.332 38.576 730.516 39.4613 730.516 41.232V46H729.06V37.232H730.516V38.656ZM738.133 46.144C737.461 46.144 736.858 46.032 736.325 45.808C735.792 45.5733 735.37 45.2533 735.061 44.848C734.752 44.432 734.581 43.9573 734.549 43.424H736.053C736.096 43.8613 736.298 44.2187 736.661 44.496C737.034 44.7733 737.52 44.912 738.117 44.912C738.672 44.912 739.109 44.7893 739.429 44.544C739.749 44.2987 739.909 43.9893 739.909 43.616C739.909 43.232 739.738 42.9493 739.397 42.768C739.056 42.576 738.528 42.3893 737.813 42.208C737.162 42.0373 736.629 41.8667 736.213 41.696C735.808 41.5147 735.456 41.2533 735.157 40.912C734.869 40.56 734.725 40.1013 734.725 39.536C734.725 39.088 734.858 38.6773 735.125 38.304C735.392 37.9307 735.77 37.6373 736.261 37.424C736.752 37.2 737.312 37.088 737.941 37.088C738.912 37.088 739.696 37.3333 740.293 37.824C740.89 38.3147 741.21 38.9867 741.253 39.84H739.797C739.765 39.3813 739.578 39.0133 739.237 38.736C738.906 38.4587 738.458 38.32 737.893 38.32C737.37 38.32 736.954 38.432 736.645 38.656C736.336 38.88 736.181 39.1733 736.181 39.536C736.181 39.824 736.272 40.064 736.453 40.256C736.645 40.4373 736.88 40.5867 737.157 40.704C737.445 40.8107 737.84 40.9333 738.341 41.072C738.97 41.2427 739.482 41.4133 739.877 41.584C740.272 41.744 740.608 41.9893 740.885 42.32C741.173 42.6507 741.322 43.0827 741.333 43.616C741.333 44.096 741.2 44.528 740.933 44.912C740.666 45.296 740.288 45.6 739.797 45.824C739.317 46.0373 738.762 46.144 738.133 46.144ZM780.704 38.112C780.704 39.04 780.384 39.8133 779.744 40.432C779.114 41.04 778.149 41.344 776.848 41.344H774.704V46H773.248V34.848H776.848C778.106 34.848 779.061 35.152 779.712 35.76C780.373 36.368 780.704 37.152 780.704 38.112ZM776.848 40.144C777.658 40.144 778.256 39.968 778.64 39.616C779.024 39.264 779.216 38.7627 779.216 38.112C779.216 36.736 778.426 36.048 776.848 36.048H774.704V40.144H776.848ZM783.969 38.656C784.225 38.1547 784.588 37.7653 785.057 37.488C785.537 37.2107 786.119 37.072 786.801 37.072V38.576H786.417C784.785 38.576 783.969 39.4613 783.969 41.232V46H782.513V37.232H783.969V38.656ZM789.234 35.808C788.957 35.808 788.722 35.712 788.53 35.52C788.338 35.328 788.242 35.0933 788.242 34.816C788.242 34.5387 788.338 34.304 788.53 34.112C788.722 33.92 788.957 33.824 789.234 33.824C789.501 33.824 789.725 33.92 789.906 34.112C790.098 34.304 790.194 34.5387 790.194 34.816C790.194 35.0933 790.098 35.328 789.906 35.52C789.725 35.712 789.501 35.808 789.234 35.808ZM789.938 37.232V46H788.482V37.232H789.938ZM791.876 41.6C791.876 40.6933 792.057 39.904 792.42 39.232C792.782 38.5493 793.284 38.0213 793.924 37.648C794.574 37.2747 795.316 37.088 796.148 37.088C797.225 37.088 798.11 37.3493 798.804 37.872C799.508 38.3947 799.972 39.12 800.196 40.048H798.628C798.478 39.5147 798.185 39.0933 797.748 38.784C797.321 38.4747 796.788 38.32 796.148 38.32C795.316 38.32 794.644 38.608 794.132 39.184C793.62 39.7493 793.364 40.5547 793.364 41.6C793.364 42.656 793.62 43.472 794.132 44.048C794.644 44.624 795.316 44.912 796.148 44.912C796.788 44.912 797.321 44.7627 797.748 44.464C798.174 44.1653 798.468 43.7387 798.628 43.184H800.196C799.961 44.08 799.492 44.8 798.788 45.344C798.084 45.8773 797.204 46.144 796.148 46.144C795.316 46.144 794.574 45.9573 793.924 45.584C793.284 45.2107 792.782 44.6827 792.42 44C792.057 43.3173 791.876 42.5173 791.876 41.6ZM802.89 35.808C802.613 35.808 802.378 35.712 802.186 35.52C801.994 35.328 801.898 35.0933 801.898 34.816C801.898 34.5387 801.994 34.304 802.186 34.112C802.378 33.92 802.613 33.824 802.89 33.824C803.157 33.824 803.381 33.92 803.562 34.112C803.754 34.304 803.85 34.5387 803.85 34.816C803.85 35.0933 803.754 35.328 803.562 35.52C803.381 35.712 803.157 35.808 802.89 35.808ZM803.594 37.232V46H802.138V37.232H803.594ZM810.348 37.072C811.414 37.072 812.278 37.3973 812.94 38.048C813.601 38.688 813.932 39.616 813.932 40.832V46H812.492V41.04C812.492 40.1653 812.273 39.4987 811.836 39.04C811.398 38.5707 810.801 38.336 810.044 38.336C809.276 38.336 808.662 38.576 808.204 39.056C807.756 39.536 807.532 40.2347 807.532 41.152V46H806.076V37.232H807.532V38.48C807.82 38.032 808.209 37.6853 808.7 37.44C809.201 37.1947 809.75 37.072 810.348 37.072ZM819.926 37.088C820.683 37.088 821.345 37.2533 821.91 37.584C822.486 37.9147 822.913 38.3307 823.19 38.832V37.232H824.662V46.192C824.662 46.992 824.491 47.7013 824.15 48.32C823.809 48.9493 823.318 49.44 822.678 49.792C822.049 50.144 821.313 50.32 820.47 50.32C819.318 50.32 818.358 50.048 817.59 49.504C816.822 48.96 816.369 48.2187 816.23 47.28H817.67C817.83 47.8133 818.161 48.24 818.662 48.56C819.163 48.8907 819.766 49.056 820.47 49.056C821.27 49.056 821.921 48.8053 822.422 48.304C822.934 47.8027 823.19 47.0987 823.19 46.192V44.352C822.902 44.864 822.475 45.2907 821.91 45.632C821.345 45.9733 820.683 46.144 819.926 46.144C819.147 46.144 818.438 45.952 817.798 45.568C817.169 45.184 816.673 44.6453 816.31 43.952C815.947 43.2587 815.766 42.4693 815.766 41.584C815.766 40.688 815.947 39.904 816.31 39.232C816.673 38.5493 817.169 38.0213 817.798 37.648C818.438 37.2747 819.147 37.088 819.926 37.088ZM823.19 41.6C823.19 40.9387 823.057 40.3627 822.79 39.872C822.523 39.3813 822.161 39.008 821.702 38.752C821.254 38.4853 820.758 38.352 820.214 38.352C819.67 38.352 819.174 38.48 818.726 38.736C818.278 38.992 817.921 39.3653 817.654 39.856C817.387 40.3467 817.254 40.9227 817.254 41.584C817.254 42.256 817.387 42.8427 817.654 43.344C817.921 43.8347 818.278 44.2133 818.726 44.48C819.174 44.736 819.67 44.864 820.214 44.864C820.758 44.864 821.254 44.736 821.702 44.48C822.161 44.2133 822.523 43.8347 822.79 43.344C823.057 42.8427 823.19 42.2613 823.19 41.6ZM862.854 46L860.198 41.44H858.438V46H856.982V34.848H860.582C861.425 34.848 862.134 34.992 862.71 35.28C863.297 35.568 863.734 35.9573 864.022 36.448C864.31 36.9387 864.454 37.4987 864.454 38.128C864.454 38.896 864.23 39.5733 863.782 40.16C863.345 40.7467 862.683 41.136 861.798 41.328L864.598 46H862.854ZM858.438 40.272H860.582C861.371 40.272 861.963 40.08 862.358 39.696C862.753 39.3013 862.95 38.7787 862.95 38.128C862.95 37.4667 862.753 36.9547 862.358 36.592C861.974 36.2293 861.382 36.048 860.582 36.048H858.438V40.272ZM874.716 41.28C874.716 41.5573 874.7 41.8507 874.668 42.16H867.66C867.714 43.024 868.007 43.7013 868.54 44.192C869.084 44.672 869.74 44.912 870.508 44.912C871.138 44.912 871.66 44.768 872.076 44.48C872.503 44.1813 872.802 43.7867 872.972 43.296H874.54C874.306 44.1387 873.836 44.8267 873.132 45.36C872.428 45.8827 871.554 46.144 870.508 46.144C869.676 46.144 868.93 45.9573 868.268 45.584C867.618 45.2107 867.106 44.6827 866.732 44C866.359 43.3067 866.172 42.5067 866.172 41.6C866.172 40.6933 866.354 39.8987 866.716 39.216C867.079 38.5333 867.586 38.0107 868.236 37.648C868.898 37.2747 869.655 37.088 870.508 37.088C871.34 37.088 872.076 37.2693 872.716 37.632C873.356 37.9947 873.847 38.496 874.188 39.136C874.54 39.7653 874.716 40.48 874.716 41.28ZM873.212 40.976C873.212 40.4213 873.09 39.9467 872.844 39.552C872.599 39.1467 872.263 38.8427 871.836 38.64C871.42 38.4267 870.956 38.32 870.444 38.32C869.708 38.32 869.079 38.5547 868.556 39.024C868.044 39.4933 867.751 40.144 867.676 40.976H873.212ZM879.742 46.144C879.07 46.144 878.468 46.032 877.934 45.808C877.401 45.5733 876.98 45.2533 876.67 44.848C876.361 44.432 876.19 43.9573 876.158 43.424H877.662C877.705 43.8613 877.908 44.2187 878.27 44.496C878.644 44.7733 879.129 44.912 879.726 44.912C880.281 44.912 880.718 44.7893 881.038 44.544C881.358 44.2987 881.518 43.9893 881.518 43.616C881.518 43.232 881.348 42.9493 881.006 42.768C880.665 42.576 880.137 42.3893 879.422 42.208C878.772 42.0373 878.238 41.8667 877.822 41.696C877.417 41.5147 877.065 41.2533 876.766 40.912C876.478 40.56 876.334 40.1013 876.334 39.536C876.334 39.088 876.468 38.6773 876.734 38.304C877.001 37.9307 877.38 37.6373 877.87 37.424C878.361 37.2 878.921 37.088 879.55 37.088C880.521 37.088 881.305 37.3333 881.902 37.824C882.5 38.3147 882.82 38.9867 882.862 39.84H881.406C881.374 39.3813 881.188 39.0133 880.846 38.736C880.516 38.4587 880.068 38.32 879.502 38.32C878.98 38.32 878.564 38.432 878.254 38.656C877.945 38.88 877.79 39.1733 877.79 39.536C877.79 39.824 877.881 40.064 878.062 40.256C878.254 40.4373 878.489 40.5867 878.766 40.704C879.054 40.8107 879.449 40.9333 879.95 41.072C880.58 41.2427 881.092 41.4133 881.486 41.584C881.881 41.744 882.217 41.9893 882.494 42.32C882.782 42.6507 882.932 43.0827 882.942 43.616C882.942 44.096 882.809 44.528 882.542 44.912C882.276 45.296 881.897 45.6 881.406 45.824C880.926 46.0373 880.372 46.144 879.742 46.144ZM888.822 46.144C888 46.144 887.254 45.9573 886.582 45.584C885.92 45.2107 885.398 44.6827 885.014 44C884.64 43.3067 884.454 42.5067 884.454 41.6C884.454 40.704 884.646 39.9147 885.03 39.232C885.424 38.5387 885.958 38.0107 886.63 37.648C887.302 37.2747 888.054 37.088 888.886 37.088C889.718 37.088 890.47 37.2747 891.142 37.648C891.814 38.0107 892.342 38.5333 892.726 39.216C893.12 39.8987 893.318 40.6933 893.318 41.6C893.318 42.5067 893.115 43.3067 892.71 44C892.315 44.6827 891.776 45.2107 891.094 45.584C890.411 45.9573 889.654 46.144 888.822 46.144ZM888.822 44.864C889.344 44.864 889.835 44.7413 890.294 44.496C890.752 44.2507 891.12 43.8827 891.398 43.392C891.686 42.9013 891.83 42.304 891.83 41.6C891.83 40.896 891.691 40.2987 891.414 39.808C891.136 39.3173 890.774 38.9547 890.326 38.72C889.878 38.4747 889.392 38.352 888.87 38.352C888.336 38.352 887.846 38.4747 887.398 38.72C886.96 38.9547 886.608 39.3173 886.342 39.808C886.075 40.2987 885.942 40.896 885.942 41.6C885.942 42.3147 886.07 42.9173 886.326 43.408C886.592 43.8987 886.944 44.2667 887.382 44.512C887.819 44.7467 888.299 44.864 888.822 44.864ZM903.008 37.232V46H901.552V44.704C901.275 45.152 900.885 45.504 900.384 45.76C899.893 46.0053 899.349 46.128 898.752 46.128C898.069 46.128 897.456 45.9893 896.912 45.712C896.368 45.424 895.936 44.9973 895.616 44.432C895.307 43.8667 895.152 43.1787 895.152 42.368V37.232H896.592V42.176C896.592 43.04 896.811 43.7067 897.248 44.176C897.685 44.6347 898.283 44.864 899.04 44.864C899.819 44.864 900.432 44.624 900.88 44.144C901.328 43.664 901.552 42.9653 901.552 42.048V37.232H903.008ZM906.922 38.656C907.178 38.1547 907.541 37.7653 908.01 37.488C908.49 37.2107 909.072 37.072 909.754 37.072V38.576H909.37C907.738 38.576 906.922 39.4613 906.922 41.232V46H905.466V37.232H906.922V38.656ZM910.891 41.6C910.891 40.6933 911.072 39.904 911.435 39.232C911.798 38.5493 912.299 38.0213 912.939 37.648C913.59 37.2747 914.331 37.088 915.163 37.088C916.24 37.088 917.126 37.3493 917.819 37.872C918.523 38.3947 918.987 39.12 919.211 40.048H917.643C917.494 39.5147 917.2 39.0933 916.763 38.784C916.336 38.4747 915.803 38.32 915.163 38.32C914.331 38.32 913.659 38.608 913.147 39.184C912.635 39.7493 912.379 40.5547 912.379 41.6C912.379 42.656 912.635 43.472 913.147 44.048C913.659 44.624 914.331 44.912 915.163 44.912C915.803 44.912 916.336 44.7627 916.763 44.464C917.19 44.1653 917.483 43.7387 917.643 43.184H919.211C918.976 44.08 918.507 44.8 917.803 45.344C917.099 45.8773 916.219 46.144 915.163 46.144C914.331 46.144 913.59 45.9573 912.939 45.584C912.299 45.2107 911.798 44.6827 911.435 44C911.072 43.3173 910.891 42.5173 910.891 41.6ZM929.154 41.28C929.154 41.5573 929.138 41.8507 929.106 42.16H922.098C922.151 43.024 922.445 43.7013 922.978 44.192C923.522 44.672 924.178 44.912 924.946 44.912C925.575 44.912 926.098 44.768 926.514 44.48C926.941 44.1813 927.239 43.7867 927.41 43.296H928.978C928.743 44.1387 928.274 44.8267 927.57 45.36C926.866 45.8827 925.991 46.144 924.946 46.144C924.114 46.144 923.367 45.9573 922.706 45.584C922.055 45.2107 921.543 44.6827 921.17 44C920.797 43.3067 920.61 42.5067 920.61 41.6C920.61 40.6933 920.791 39.8987 921.154 39.216C921.517 38.5333 922.023 38.0107 922.674 37.648C923.335 37.2747 924.093 37.088 924.946 37.088C925.778 37.088 926.514 37.2693 927.154 37.632C927.794 37.9947 928.285 38.496 928.626 39.136C928.978 39.7653 929.154 40.48 929.154 41.28ZM927.65 40.976C927.65 40.4213 927.527 39.9467 927.282 39.552C927.037 39.1467 926.701 38.8427 926.274 38.64C925.858 38.4267 925.394 38.32 924.882 38.32C924.146 38.32 923.517 38.5547 922.994 39.024C922.482 39.4933 922.189 40.144 922.114 40.976H927.65ZM934.18 46.144C933.508 46.144 932.905 46.032 932.372 45.808C931.838 45.5733 931.417 45.2533 931.108 44.848C930.798 44.432 930.628 43.9573 930.596 43.424H932.1C932.142 43.8613 932.345 44.2187 932.708 44.496C933.081 44.7733 933.566 44.912 934.164 44.912C934.718 44.912 935.156 44.7893 935.476 44.544C935.796 44.2987 935.956 43.9893 935.956 43.616C935.956 43.232 935.785 42.9493 935.444 42.768C935.102 42.576 934.574 42.3893 933.86 42.208C933.209 42.0373 932.676 41.8667 932.26 41.696C931.854 41.5147 931.502 41.2533 931.204 40.912C930.916 40.56 930.772 40.1013 930.772 39.536C930.772 39.088 930.905 38.6773 931.172 38.304C931.438 37.9307 931.817 37.6373 932.308 37.424C932.798 37.2 933.358 37.088 933.988 37.088C934.958 37.088 935.742 37.3333 936.34 37.824C936.937 38.3147 937.257 38.9867 937.3 39.84H935.844C935.812 39.3813 935.625 39.0133 935.284 38.736C934.953 38.4587 934.505 38.32 933.94 38.32C933.417 38.32 933.001 38.432 932.692 38.656C932.382 38.88 932.228 39.1733 932.228 39.536C932.228 39.824 932.318 40.064 932.5 40.256C932.692 40.4373 932.926 40.5867 933.204 40.704C933.492 40.8107 933.886 40.9333 934.388 41.072C935.017 41.2427 935.529 41.4133 935.924 41.584C936.318 41.744 936.654 41.9893 936.932 42.32C937.22 42.6507 937.369 43.0827 937.38 43.616C937.38 44.096 937.246 44.528 936.98 44.912C936.713 45.296 936.334 45.6 935.844 45.824C935.364 46.0373 934.809 46.144 934.18 46.144Z" fill="#22343D"/>
<path fill-rule="evenodd" clip-rule="evenodd" d="M149.133 53.4587C147.41 53.4587 146 52.0488 146 50.3256L146 39.372L153.886 39.372L153.886 39.3598L158.626 39.3598C159.848 39.3285 160.882 38.2633 160.882 37.01C160.882 35.7255 159.817 34.6602 158.532 34.6602L152.266 34.6602L152.266 34.6622L146 34.6622L146 31.5272C146 29.804 147.41 28.3941 149.133 28.3941L158.532 28.3941C160.913 28.3941 162.95 29.24 164.61 30.9319C166.302 32.5924 167.148 34.6289 167.148 37.01C167.148 39.3598 166.334 41.3963 164.673 43.0569C163.013 44.7174 161.007 45.5947 158.658 45.626L152.266 45.626L152.266 50.3256C152.266 52.0488 150.856 53.4587 149.133 53.4587Z" fill="#02BC6B"/>
<path fill-rule="evenodd" clip-rule="evenodd" d="M171.097 24.7578C174.559 28.1199 176.303 32.3073 176.303 37.0672C176.303 41.7473 174.632 45.9307 171.224 49.3034L166.385 44.7508C168.505 42.6533 169.545 40.128 169.545 37.0672C169.545 33.9832 168.473 31.4619 166.303 29.3538L171.097 24.7578Z" fill="#02897A"/>
<path fill-rule="evenodd" clip-rule="evenodd" d="M178.505 19C183.491 23.9778 186 30.1499 186 37.2338C186 44.2071 183.592 50.3753 178.688 55.3638L174.019 50.8009C177.671 47.085 179.461 42.5781 179.461 37.2338C179.461 31.8358 177.611 27.3328 173.879 23.6062L178.505 19Z" fill="#035B81"/>
<path fill-rule="evenodd" clip-rule="evenodd" d="M146 45.6524L152.266 45.6524L152.266 50.326C152.266 52.0492 150.856 53.4591 149.133 53.4591C147.41 53.4591 146 52.0492 146 50.326L146 45.6524Z" fill="#028E37"/>
<rect x="1224" y="24" width="32" height="32" rx="16" fill="#F3F3F3"/>
<path d="M1240 50C1245.51 50 1250 45.514 1250 40C1250 34.486 1245.51 30 1240 30C1234.49 30 1230 34.486 1230 40C1230 45.514 1234.49 50 1240 50ZM1240 32C1244.41 32 1248 35.589 1248 40C1248 44.411 1244.41 48 1240 48C1235.59 48 1232 44.411 1232 40C1232 35.589 1235.59 32 1240 32Z" fill="#02897A"/>
<path d="M1247 40C1247 36.134 1243.87 33 1240 33V47C1243.87 47 1247 43.866 1247 40Z" fill="#02897A"/>
<path d="M219.91 33.72C219.91 34.94 219.63 36.06 219.07 37.08C218.51 38.08 217.65 38.89 216.49 39.51C215.33 40.13 213.89 40.44 212.17 40.44H208.99V48H203.86V26.94H212.17C213.85 26.94 215.27 27.23 216.43 27.81C217.59 28.39 218.46 29.19 219.04 30.21C219.62 31.23 219.91 32.4 219.91 33.72ZM211.78 36.36C212.76 36.36 213.49 36.13 213.97 35.67C214.45 35.21 214.69 34.56 214.69 33.72C214.69 32.88 214.45 32.23 213.97 31.77C213.49 31.31 212.76 31.08 211.78 31.08H208.99V36.36H211.78ZM227.711 34.05C228.311 33.13 229.061 32.41 229.961 31.89C230.861 31.35 231.861 31.08 232.961 31.08V36.51H231.551C230.271 36.51 229.311 36.79 228.671 37.35C228.031 37.89 227.711 38.85 227.711 40.23V48H222.581V31.26H227.711V34.05ZM243.033 48.24C241.393 48.24 239.913 47.89 238.593 47.19C237.293 46.49 236.263 45.49 235.503 44.19C234.763 42.89 234.393 41.37 234.393 39.63C234.393 37.91 234.773 36.4 235.533 35.1C236.293 33.78 237.333 32.77 238.653 32.07C239.973 31.37 241.453 31.02 243.093 31.02C244.733 31.02 246.213 31.37 247.533 32.07C248.853 32.77 249.893 33.78 250.653 35.1C251.413 36.4 251.793 37.91 251.793 39.63C251.793 41.35 251.403 42.87 250.623 44.19C249.863 45.49 248.813 46.49 247.473 47.19C246.153 47.89 244.673 48.24 243.033 48.24ZM243.033 43.8C244.013 43.8 244.843 43.44 245.523 42.72C246.223 42 246.573 40.97 246.573 39.63C246.573 38.29 246.233 37.26 245.553 36.54C244.893 35.82 244.073 35.46 243.093 35.46C242.093 35.46 241.263 35.82 240.603 36.54C239.943 37.24 239.613 38.27 239.613 39.63C239.613 40.97 239.933 42 240.573 42.72C241.233 43.44 242.053 43.8 243.033 43.8ZM253.494 39.6C253.494 37.88 253.814 36.37 254.454 35.07C255.114 33.77 256.004 32.77 257.124 32.07C258.244 31.37 259.494 31.02 260.874 31.02C261.974 31.02 262.974 31.25 263.874 31.71C264.794 32.17 265.514 32.79 266.034 33.57V25.8H271.164V48H266.034V45.6C265.554 46.4 264.864 47.04 263.964 47.52C263.084 48 262.054 48.24 260.874 48.24C259.494 48.24 258.244 47.89 257.124 47.19C256.004 46.47 255.114 45.46 254.454 44.16C253.814 42.84 253.494 41.32 253.494 39.6ZM266.034 39.63C266.034 38.35 265.674 37.34 264.954 36.6C264.254 35.86 263.394 35.49 262.374 35.49C261.354 35.49 260.484 35.86 259.764 36.6C259.064 37.32 258.714 38.32 258.714 39.6C258.714 40.88 259.064 41.9 259.764 42.66C260.484 43.4 261.354 43.77 262.374 43.77C263.394 43.77 264.254 43.4 264.954 42.66C265.674 41.92 266.034 40.91 266.034 39.63ZM291.406 31.26V48H286.276V45.72C285.756 46.46 285.046 47.06 284.146 47.52C283.266 47.96 282.286 48.18 281.206 48.18C279.926 48.18 278.796 47.9 277.816 47.34C276.836 46.76 276.076 45.93 275.536 44.85C274.996 43.77 274.726 42.5 274.726 41.04V31.26H279.826V40.35C279.826 41.47 280.116 42.34 280.696 42.96C281.276 43.58 282.056 43.89 283.036 43.89C284.036 43.89 284.826 43.58 285.406 42.96C285.986 42.34 286.276 41.47 286.276 40.35V31.26H291.406ZM294.07 39.63C294.07 37.89 294.42 36.37 295.12 35.07C295.84 33.77 296.83 32.77 298.09 32.07C299.37 31.37 300.83 31.02 302.47 31.02C304.57 31.02 306.32 31.57 307.72 32.67C309.14 33.77 310.07 35.32 310.51 37.32H305.05C304.59 36.04 303.7 35.4 302.38 35.4C301.44 35.4 300.69 35.77 300.13 36.51C299.57 37.23 299.29 38.27 299.29 39.63C299.29 40.99 299.57 42.04 300.13 42.78C300.69 43.5 301.44 43.86 302.38 43.86C303.7 43.86 304.59 43.22 305.05 41.94H310.51C310.07 43.9 309.14 45.44 307.72 46.56C306.3 47.68 304.55 48.24 302.47 48.24C300.83 48.24 299.37 47.89 298.09 47.19C296.83 46.49 295.84 45.49 295.12 44.19C294.42 42.89 294.07 41.37 294.07 39.63ZM322.585 43.65V48H319.975C318.115 48 316.665 47.55 315.625 46.65C314.585 45.73 314.065 44.24 314.065 42.18V35.52H312.025V31.26H314.065V27.18H319.195V31.26H322.555V35.52H319.195V42.24C319.195 42.74 319.315 43.1 319.555 43.32C319.795 43.54 320.195 43.65 320.755 43.65H322.585Z" fill="#173A56"/>
</svg>
