<svg width="110" height="43" viewBox="0 0 110 43" fill="none" xmlns="http://www.w3.org/2000/svg">
<rect width="110" height="43" rx="4" fill="#02897A"/>
<path d="M33.912 24.768C33.912 20.832 28.184 22.08 28.184 19.84C28.184 18.928 28.84 18.496 29.72 18.528C30.68 18.544 31.272 19.12 31.32 19.856H33.784C33.64 17.84 32.072 16.672 29.784 16.672C27.48 16.672 25.848 17.888 25.848 19.904C25.832 23.952 31.592 22.496 31.592 24.912C31.592 25.712 30.968 26.272 29.912 26.272C28.872 26.272 28.28 25.68 28.216 24.784H25.816C25.848 26.896 27.64 28.112 29.96 28.112C32.504 28.112 33.912 26.528 33.912 24.768ZM35.854 28H38.094V19.136H35.854V28ZM36.99 18.08C37.774 18.08 38.366 17.504 38.366 16.768C38.366 16.032 37.774 15.456 36.99 15.456C36.19 15.456 35.614 16.032 35.614 16.768C35.614 17.504 36.19 18.08 36.99 18.08ZM39.7311 23.536C39.7311 26.304 41.5231 28.144 43.7791 28.144C45.1711 28.144 46.1791 27.456 46.7071 26.688V28.064C46.7071 29.712 45.7471 30.416 44.5151 30.416C43.3951 30.416 42.5631 29.888 42.3391 29.088H40.1151C40.3391 31.12 42.0831 32.368 44.5791 32.368C47.4911 32.368 48.9631 30.464 48.9631 28.064V19.136H46.7071V20.4C46.1791 19.632 45.1711 18.992 43.7791 18.992C41.5231 18.992 39.7311 20.768 39.7311 23.536ZM46.7071 23.568C46.7071 25.248 45.5871 26.176 44.3551 26.176C43.1551 26.176 42.0191 25.216 42.0191 23.536C42.0191 21.856 43.1551 20.96 44.3551 20.96C45.5871 20.96 46.7071 21.888 46.7071 23.568ZM57.3589 28H59.5989V22.8C59.5989 20.352 58.1269 19.008 56.0629 19.008C54.9269 19.008 53.9669 19.488 53.3909 20.24V19.136H51.1509V28H53.3909V23.104C53.3909 21.68 54.1749 20.912 55.3909 20.912C56.5749 20.912 57.3589 21.68 57.3589 23.104V28ZM65.5095 23.728C65.5095 26.672 67.5255 28.112 69.9735 28.112C72.4215 28.112 74.5335 26.672 74.5335 23.728V16.832H72.2775V23.744C72.2775 25.28 71.4455 26.08 70.0055 26.08C68.5815 26.08 67.7495 25.28 67.7495 23.744V16.832H65.5095V23.728ZM78.9378 20.416V19.136H76.6978V32.224H78.9378V26.736C79.4818 27.456 80.4738 28.144 81.8658 28.144C84.1378 28.144 85.9138 26.304 85.9138 23.536C85.9138 20.768 84.1378 18.992 81.8658 18.992C80.4898 18.992 79.4658 19.664 78.9378 20.416ZM83.6258 23.536C83.6258 25.216 82.4898 26.176 81.2738 26.176C80.0738 26.176 78.9378 25.248 78.9378 23.568C78.9378 21.888 80.0738 20.96 81.2738 20.96C82.4898 20.96 83.6258 21.856 83.6258 23.536Z" fill="white"/>
</svg>
