<svg width="102" height="43" viewBox="0 0 102 43" fill="none" xmlns="http://www.w3.org/2000/svg">
<rect x="0.5" y="0.5" width="101" height="42" rx="3.5" stroke="#BCD0E5"/>
<path d="M34.1596 24.768C34.1596 20.832 28.4316 22.08 28.4316 19.84C28.4316 18.928 29.0876 18.496 29.9676 18.528C30.9276 18.544 31.5196 19.12 31.5676 19.856H34.0316C33.8876 17.84 32.3196 16.672 30.0316 16.672C27.7276 16.672 26.0956 17.888 26.0956 19.904C26.0796 23.952 31.8396 22.496 31.8396 24.912C31.8396 25.712 31.2156 26.272 30.1596 26.272C29.1196 26.272 28.5276 25.68 28.4636 24.784H26.0636C26.0956 26.896 27.8876 28.112 30.2076 28.112C32.7516 28.112 34.1596 26.528 34.1596 24.768ZM36.1016 28H38.3416V19.136H36.1016V28ZM37.2376 18.08C38.0216 18.08 38.6136 17.504 38.6136 16.768C38.6136 16.032 38.0216 15.456 37.2376 15.456C36.4376 15.456 35.8616 16.032 35.8616 16.768C35.8616 17.504 36.4376 18.08 37.2376 18.08ZM39.9787 23.536C39.9787 26.304 41.7707 28.144 44.0267 28.144C45.4187 28.144 46.4267 27.456 46.9547 26.688V28.064C46.9547 29.712 45.9947 30.416 44.7627 30.416C43.6427 30.416 42.8107 29.888 42.5867 29.088H40.3627C40.5867 31.12 42.3307 32.368 44.8267 32.368C47.7387 32.368 49.2107 30.464 49.2107 28.064V19.136H46.9547V20.4C46.4267 19.632 45.4187 18.992 44.0267 18.992C41.7707 18.992 39.9787 20.768 39.9787 23.536ZM46.9547 23.568C46.9547 25.248 45.8347 26.176 44.6027 26.176C43.4027 26.176 42.2667 25.216 42.2667 23.536C42.2667 21.856 43.4027 20.96 44.6027 20.96C45.8347 20.96 46.9547 21.888 46.9547 23.568ZM57.6064 28H59.8464V22.8C59.8464 20.352 58.3744 19.008 56.3104 19.008C55.1744 19.008 54.2144 19.488 53.6384 20.24V19.136H51.3984V28H53.6384V23.104C53.6384 21.68 54.4224 20.912 55.6384 20.912C56.8224 20.912 57.6064 21.68 57.6064 23.104V28ZM65.7891 28H68.0291V16.832H65.7891V28ZM76.4502 28H78.6902V22.8C78.6902 20.352 77.2182 19.008 75.1542 19.008C74.0182 19.008 73.0582 19.488 72.4822 20.24V19.136H70.2422V28H72.4822V23.104C72.4822 21.68 73.2662 20.912 74.4822 20.912C75.6662 20.912 76.4502 21.68 76.4502 23.104V28Z" fill="#173A56"/>
</svg>
